<svg width="1280" height="320" viewBox="0 0 1280 320" fill="none" xmlns="http://www.w3.org/2000/svg">
<rect width="1280" height="320" rx="32" fill="#0A0A0A"/>
<rect x="153" y="92" width="136" height="136" rx="24" fill="white"/>
<path d="M234.999 132L234.999 160L256 188L186 188L206.999 160L207 132" stroke="black" stroke-width="10" stroke-linecap="round" stroke-linejoin="round"/>
<path d="M339.24 219.36H379.176V112.8C379.176 103.584 375.528 99.936 366.696 99.936H344.232V91.68H366.696C381.288 91.68 388.584 98.592 388.584 112.8V219.36H425.832V228H339.24V219.36ZM450.525 177.12C450.525 147.168 466.269 123.936 494.877 123.936C521.565 123.936 537.885 145.056 538.461 176.352V179.808H460.509C461.277 205.536 474.333 221.28 494.877 221.28C508.701 221.28 520.797 212.832 525.981 199.392L536.157 200.16C530.205 218.592 514.077 230.304 494.877 230.304C466.269 230.304 450.525 207.072 450.525 177.12ZM460.701 170.976H528.285C526.365 146.208 513.309 132.96 494.877 132.96C475.293 132.96 462.621 147.36 460.701 170.976ZM566.61 156.384C570.066 136.992 584.85 123.936 605.97 123.936C630.546 123.936 644.754 138.144 644.754 166.56V209.568C644.754 216.288 647.058 219.36 652.434 219.36H656.082V228H652.05C642.066 228 635.538 222.624 635.538 208.032C629.586 221.472 615.954 230.112 599.25 230.304C578.898 230.112 564.882 218.976 564.882 202.272C564.882 183.072 581.586 176.736 600.978 173.088L635.154 166.56C635.154 143.712 624.018 132.96 605.97 132.96C590.226 132.96 579.474 142.368 577.17 157.152L566.61 156.384ZM574.674 202.272C574.674 213.984 584.466 222.24 601.362 221.664C621.33 220.896 635.922 206.304 635.73 185.376L635.538 175.008L607.122 180.384C590.994 183.264 574.674 186.336 574.674 202.272ZM720.327 126.24L721.095 148.32C725.895 133.92 734.727 126.24 748.551 126.24H767.367V134.496H748.551C732.423 134.496 722.631 148.128 722.631 167.328V219.36H756.999V228H685.959V219.36H713.223V134.88H685.959V126.24H720.327ZM844.284 139.68L861.948 214.944L880.764 126.24H890.748L867.708 228H856.38L839.1 154.08L821.82 228H810.492L787.452 126.24H797.436L816.252 214.944L833.916 139.68H844.284ZM911.985 156.384C915.441 136.992 930.225 123.936 951.345 123.936C975.921 123.936 990.129 138.144 990.129 166.56V209.568C990.129 216.288 992.433 219.36 997.809 219.36H1001.46V228H997.425C987.441 228 980.913 222.624 980.913 208.032C974.961 221.472 961.329 230.112 944.625 230.304C924.273 230.112 910.257 218.976 910.257 202.272C910.257 183.072 926.961 176.736 946.353 173.088L980.529 166.56C980.529 143.712 969.393 132.96 951.345 132.96C935.601 132.96 924.849 142.368 922.545 157.152L911.985 156.384ZM920.049 202.272C920.049 213.984 929.841 222.24 946.737 221.664C966.705 220.896 981.297 206.304 981.105 185.376L980.913 175.008L952.497 180.384C936.369 183.264 920.049 186.336 920.049 202.272ZM1025.38 126.24H1035.37L1071.08 218.208L1104.49 126.24H1114.66L1072.23 240.864C1068.2 252 1061.09 256.8 1049.38 256.8H1040.17V248.544H1049C1057.25 248.544 1060.71 245.472 1064.74 235.488L1068.39 226.08H1064.36L1025.38 126.24Z" fill="#FAFAFA"/>
</svg>
